<mxfile host="app.diagrams.net" modified="2023-05-29T11:32:51.748Z" agent="Mozilla/5.0 (Windows NT 10.0; Win64; x64) AppleWebKit/537.36 (KHTML, like Gecko) Chrome/113.0.0.0 Safari/537.36" etag="6GUf2jA_i2qNK1i5B4dj" version="21.3.5" type="google">
  <diagram name="Page-1" id="UHMOkNTPlZbGCpWu6kDK">
    <mxGraphModel grid="1" page="1" gridSize="10" guides="1" tooltips="1" connect="1" arrows="1" fold="1" pageScale="1" pageWidth="827" pageHeight="1169" math="0" shadow="0">
      <root>
        <mxCell id="0" />
        <mxCell id="1" parent="0" />
        <mxCell id="v9bgjLNTXUfMGwr25Gy_-1" value="Bash_script.sh" style="rounded=0;whiteSpace=wrap;html=1;fillColor=#f5f5f5;fontColor=#000000;strokeColor=#666666;" vertex="1" parent="1">
          <mxGeometry x="40" y="50" width="100" height="30" as="geometry" />
        </mxCell>
        <mxCell id="v9bgjLNTXUfMGwr25Gy_-2" value="Entrée :&amp;nbsp;&lt;br&gt;- Calendrier au format ICS&lt;br&gt;Sortie :&lt;br&gt;- fichier temporaire &quot;temp.txt&quot;&lt;br&gt;- requête pour éteindre le switch&lt;br&gt;Variables :&lt;br&gt;- temps : temps en secondes avant l&#39;actualisation du calendrier&lt;br&gt;- intervalle : temps en secondes avant l&#39;actualisation de l&#39;état" style="rounded=0;whiteSpace=wrap;html=1;align=left;fillColor=#f5f5f5;fontColor=#000000;strokeColor=#666666;" vertex="1" parent="1">
          <mxGeometry x="40" y="80" width="200" height="150" as="geometry" />
        </mxCell>
        <mxCell id="v9bgjLNTXUfMGwr25Gy_-5" style="edgeStyle=orthogonalEdgeStyle;rounded=0;orthogonalLoop=1;jettySize=auto;html=1;exitX=0.5;exitY=1;exitDx=0;exitDy=0;entryX=0.5;entryY=0;entryDx=0;entryDy=0;fillColor=#f5f5f5;strokeColor=#666666;fontColor=#000000;" edge="1" parent="1" source="v9bgjLNTXUfMGwr25Gy_-3" target="v9bgjLNTXUfMGwr25Gy_-4">
          <mxGeometry relative="1" as="geometry" />
        </mxCell>
        <mxCell id="v9bgjLNTXUfMGwr25Gy_-3" value="Début" style="ellipse;whiteSpace=wrap;html=1;fillColor=#f5f5f5;fontColor=#000000;strokeColor=#666666;" vertex="1" parent="1">
          <mxGeometry x="520" y="50" width="60" height="30" as="geometry" />
        </mxCell>
        <mxCell id="v9bgjLNTXUfMGwr25Gy_-30" style="edgeStyle=orthogonalEdgeStyle;rounded=0;orthogonalLoop=1;jettySize=auto;html=1;exitX=0.5;exitY=1;exitDx=0;exitDy=0;entryX=0.5;entryY=0;entryDx=0;entryDy=0;fillColor=#f5f5f5;strokeColor=#666666;fontColor=#000000;" edge="1" parent="1" source="v9bgjLNTXUfMGwr25Gy_-4" target="v9bgjLNTXUfMGwr25Gy_-26">
          <mxGeometry relative="1" as="geometry" />
        </mxCell>
        <mxCell id="v9bgjLNTXUfMGwr25Gy_-4" value="Définition des salles avec le liens de leur emploi du temps" style="rounded=0;whiteSpace=wrap;html=1;fillColor=#f5f5f5;fontColor=#000000;strokeColor=#666666;" vertex="1" parent="1">
          <mxGeometry x="390" y="110" width="320" height="30" as="geometry" />
        </mxCell>
        <mxCell id="v9bgjLNTXUfMGwr25Gy_-34" style="edgeStyle=orthogonalEdgeStyle;rounded=0;orthogonalLoop=1;jettySize=auto;html=1;exitX=0.5;exitY=1;exitDx=0;exitDy=0;entryX=0.5;entryY=0;entryDx=0;entryDy=0;fillColor=#f5f5f5;strokeColor=#666666;fontColor=#000000;" edge="1" parent="1" source="v9bgjLNTXUfMGwr25Gy_-6" target="v9bgjLNTXUfMGwr25Gy_-32">
          <mxGeometry relative="1" as="geometry" />
        </mxCell>
        <mxCell id="v9bgjLNTXUfMGwr25Gy_-61" style="edgeStyle=orthogonalEdgeStyle;rounded=0;orthogonalLoop=1;jettySize=auto;html=1;exitX=0;exitY=0.5;exitDx=0;exitDy=0;fillColor=#f5f5f5;strokeColor=#666666;fontColor=#000000;" edge="1" parent="1" source="v9bgjLNTXUfMGwr25Gy_-6">
          <mxGeometry relative="1" as="geometry">
            <mxPoint x="550" y="150" as="targetPoint" />
            <Array as="points">
              <mxPoint x="290" y="355" />
              <mxPoint x="290" y="150" />
            </Array>
          </mxGeometry>
        </mxCell>
        <mxCell id="v9bgjLNTXUfMGwr25Gy_-6" value="compteur &amp;lt; temps / intervalle" style="rhombus;whiteSpace=wrap;html=1;fillColor=#f5f5f5;fontColor=#000000;strokeColor=#666666;" vertex="1" parent="1">
          <mxGeometry x="442.5" y="330" width="215" height="50" as="geometry" />
        </mxCell>
        <mxCell id="v9bgjLNTXUfMGwr25Gy_-17" style="edgeStyle=orthogonalEdgeStyle;rounded=0;orthogonalLoop=1;jettySize=auto;html=1;exitX=0.5;exitY=1;exitDx=0;exitDy=0;entryX=0.5;entryY=1;entryDx=0;entryDy=0;fillColor=#f5f5f5;strokeColor=#666666;fontColor=#000000;" edge="1" parent="1" source="v9bgjLNTXUfMGwr25Gy_-13" target="v9bgjLNTXUfMGwr25Gy_-16">
          <mxGeometry relative="1" as="geometry">
            <Array as="points">
              <mxPoint x="550" y="290" />
              <mxPoint x="395" y="290" />
            </Array>
          </mxGeometry>
        </mxCell>
        <mxCell id="v9bgjLNTXUfMGwr25Gy_-23" style="edgeStyle=orthogonalEdgeStyle;rounded=0;orthogonalLoop=1;jettySize=auto;html=1;exitX=1;exitY=0.5;exitDx=0;exitDy=0;fillColor=#f5f5f5;strokeColor=#666666;fontColor=#000000;" edge="1" parent="1" source="v9bgjLNTXUfMGwr25Gy_-13" target="v9bgjLNTXUfMGwr25Gy_-24">
          <mxGeometry relative="1" as="geometry">
            <mxPoint x="630" y="262" as="targetPoint" />
          </mxGeometry>
        </mxCell>
        <mxCell id="v9bgjLNTXUfMGwr25Gy_-13" value="Parsing.awk" style="shape=parallelogram;perimeter=parallelogramPerimeter;whiteSpace=wrap;html=1;fixedSize=1;fillColor=#f5f5f5;fontColor=#000000;strokeColor=#666666;" vertex="1" parent="1">
          <mxGeometry x="495" y="242" width="110" height="28" as="geometry" />
        </mxCell>
        <mxCell id="v9bgjLNTXUfMGwr25Gy_-19" style="edgeStyle=orthogonalEdgeStyle;rounded=0;orthogonalLoop=1;jettySize=auto;html=1;exitX=0;exitY=0.5;exitDx=0;exitDy=0;fillColor=#f5f5f5;strokeColor=#666666;fontColor=#000000;" edge="1" parent="1" source="v9bgjLNTXUfMGwr25Gy_-16">
          <mxGeometry relative="1" as="geometry">
            <mxPoint x="550" y="330" as="targetPoint" />
            <Array as="points">
              <mxPoint x="310" y="250" />
              <mxPoint x="310" y="310" />
              <mxPoint x="550" y="310" />
            </Array>
          </mxGeometry>
        </mxCell>
        <mxCell id="v9bgjLNTXUfMGwr25Gy_-62" style="edgeStyle=orthogonalEdgeStyle;rounded=0;orthogonalLoop=1;jettySize=auto;html=1;exitX=0.5;exitY=0;exitDx=0;exitDy=0;fillColor=#f5f5f5;strokeColor=#666666;fontColor=#000000;" edge="1" parent="1" source="v9bgjLNTXUfMGwr25Gy_-16">
          <mxGeometry relative="1" as="geometry">
            <mxPoint x="395.33333333333326" y="150" as="targetPoint" />
          </mxGeometry>
        </mxCell>
        <mxCell id="v9bgjLNTXUfMGwr25Gy_-16" value="dernière salle" style="rhombus;whiteSpace=wrap;html=1;fillColor=#f5f5f5;fontColor=#000000;strokeColor=#666666;" vertex="1" parent="1">
          <mxGeometry x="340" y="230" width="110" height="40" as="geometry" />
        </mxCell>
        <mxCell id="v9bgjLNTXUfMGwr25Gy_-18" value="Faux" style="text;html=1;strokeColor=none;fillColor=none;align=center;verticalAlign=middle;whiteSpace=wrap;rounded=0;fontColor=#000000;" vertex="1" parent="1">
          <mxGeometry x="384" y="207" width="60" height="30" as="geometry" />
        </mxCell>
        <mxCell id="v9bgjLNTXUfMGwr25Gy_-20" value="Vrai" style="text;html=1;strokeColor=none;fillColor=none;align=center;verticalAlign=middle;whiteSpace=wrap;rounded=0;fontColor=#000000;" vertex="1" parent="1">
          <mxGeometry x="297" y="225" width="60" height="30" as="geometry" />
        </mxCell>
        <mxCell id="v9bgjLNTXUfMGwr25Gy_-24" value="" style="shape=note;whiteSpace=wrap;html=1;backgroundOutline=1;darkOpacity=0.05;size=12;fillColor=#f5f5f5;fontColor=#000000;strokeColor=#666666;" vertex="1" parent="1">
          <mxGeometry x="640" y="232" width="40" height="50" as="geometry" />
        </mxCell>
        <mxCell id="v9bgjLNTXUfMGwr25Gy_-27" style="edgeStyle=orthogonalEdgeStyle;rounded=0;orthogonalLoop=1;jettySize=auto;html=1;exitX=0.5;exitY=1;exitDx=0;exitDy=0;entryX=0.5;entryY=0;entryDx=0;entryDy=0;fillColor=#f5f5f5;strokeColor=#666666;fontColor=#000000;" edge="1" parent="1" source="v9bgjLNTXUfMGwr25Gy_-26" target="v9bgjLNTXUfMGwr25Gy_-13">
          <mxGeometry relative="1" as="geometry" />
        </mxCell>
        <mxCell id="v9bgjLNTXUfMGwr25Gy_-26" value="Requête à ADE pour récupérer le calendrier de la salle" style="rounded=0;whiteSpace=wrap;html=1;fillColor=#f5f5f5;fontColor=#000000;strokeColor=#666666;" vertex="1" parent="1">
          <mxGeometry x="465" y="170" width="170" height="40" as="geometry" />
        </mxCell>
        <mxCell id="v9bgjLNTXUfMGwr25Gy_-31" value="&lt;font style=&quot;font-size: 11px;&quot;&gt;ADECal_SALLE.ics&lt;/font&gt;" style="text;html=1;strokeColor=none;fillColor=none;align=center;verticalAlign=middle;whiteSpace=wrap;rounded=0;fontColor=#000000;" vertex="1" parent="1">
          <mxGeometry x="600" y="282" width="120" height="30" as="geometry" />
        </mxCell>
        <mxCell id="v9bgjLNTXUfMGwr25Gy_-35" style="edgeStyle=orthogonalEdgeStyle;rounded=0;orthogonalLoop=1;jettySize=auto;html=1;exitX=0.5;exitY=1;exitDx=0;exitDy=0;entryX=0.5;entryY=0;entryDx=0;entryDy=0;fillColor=#f5f5f5;strokeColor=#666666;fontColor=#000000;" edge="1" parent="1" source="v9bgjLNTXUfMGwr25Gy_-32" target="v9bgjLNTXUfMGwr25Gy_-33">
          <mxGeometry relative="1" as="geometry" />
        </mxCell>
        <mxCell id="v9bgjLNTXUfMGwr25Gy_-32" value="état_ancien [ SALLE ] = état_act" style="rounded=0;whiteSpace=wrap;html=1;fillColor=#f5f5f5;fontColor=#000000;strokeColor=#666666;" vertex="1" parent="1">
          <mxGeometry x="455" y="408" width="190" height="30" as="geometry" />
        </mxCell>
        <mxCell id="v9bgjLNTXUfMGwr25Gy_-38" style="edgeStyle=orthogonalEdgeStyle;rounded=0;orthogonalLoop=1;jettySize=auto;html=1;exitX=1;exitY=0.5;exitDx=0;exitDy=0;entryX=0;entryY=0.5;entryDx=0;entryDy=0;fillColor=#f5f5f5;strokeColor=#666666;fontColor=#000000;" edge="1" parent="1" source="v9bgjLNTXUfMGwr25Gy_-33" target="v9bgjLNTXUfMGwr25Gy_-37">
          <mxGeometry relative="1" as="geometry" />
        </mxCell>
        <mxCell id="v9bgjLNTXUfMGwr25Gy_-42" style="edgeStyle=orthogonalEdgeStyle;rounded=0;orthogonalLoop=1;jettySize=auto;html=1;exitX=0.5;exitY=1;exitDx=0;exitDy=0;entryX=0.5;entryY=0;entryDx=0;entryDy=0;fillColor=#f5f5f5;strokeColor=#666666;fontColor=#000000;" edge="1" parent="1" source="v9bgjLNTXUfMGwr25Gy_-33" target="v9bgjLNTXUfMGwr25Gy_-41">
          <mxGeometry relative="1" as="geometry" />
        </mxCell>
        <mxCell id="v9bgjLNTXUfMGwr25Gy_-33" value="Getstate.awk" style="shape=parallelogram;perimeter=parallelogramPerimeter;whiteSpace=wrap;html=1;fixedSize=1;fillColor=#f5f5f5;fontColor=#000000;strokeColor=#666666;" vertex="1" parent="1">
          <mxGeometry x="490" y="470" width="120" height="30" as="geometry" />
        </mxCell>
        <mxCell id="v9bgjLNTXUfMGwr25Gy_-37" value="état_act" style="whiteSpace=wrap;html=1;aspect=fixed;fillColor=#f5f5f5;fontColor=#000000;strokeColor=#666666;" vertex="1" parent="1">
          <mxGeometry x="640" y="460" width="50" height="50" as="geometry" />
        </mxCell>
        <mxCell id="v9bgjLNTXUfMGwr25Gy_-51" style="edgeStyle=orthogonalEdgeStyle;rounded=0;orthogonalLoop=1;jettySize=auto;html=1;exitX=0.5;exitY=0;exitDx=0;exitDy=0;entryX=1;entryY=0.5;entryDx=0;entryDy=0;fillColor=#f5f5f5;strokeColor=#666666;fontColor=#000000;" edge="1" parent="1" source="v9bgjLNTXUfMGwr25Gy_-39" target="v9bgjLNTXUfMGwr25Gy_-48">
          <mxGeometry relative="1" as="geometry" />
        </mxCell>
        <mxCell id="v9bgjLNTXUfMGwr25Gy_-59" style="edgeStyle=orthogonalEdgeStyle;rounded=0;orthogonalLoop=1;jettySize=auto;html=1;exitX=1;exitY=0.5;exitDx=0;exitDy=0;fillColor=#f5f5f5;strokeColor=#666666;fontColor=#000000;" edge="1" parent="1" source="v9bgjLNTXUfMGwr25Gy_-39">
          <mxGeometry relative="1" as="geometry">
            <mxPoint x="550" y="320" as="targetPoint" />
            <Array as="points">
              <mxPoint x="880" y="630" />
              <mxPoint x="880" y="320" />
            </Array>
          </mxGeometry>
        </mxCell>
        <mxCell id="v9bgjLNTXUfMGwr25Gy_-39" value="dernière salle" style="rhombus;whiteSpace=wrap;html=1;fillColor=#f5f5f5;fontColor=#000000;strokeColor=#666666;" vertex="1" parent="1">
          <mxGeometry x="730" y="605" width="120" height="50" as="geometry" />
        </mxCell>
        <mxCell id="v9bgjLNTXUfMGwr25Gy_-57" value="" style="edgeStyle=orthogonalEdgeStyle;rounded=0;orthogonalLoop=1;jettySize=auto;html=1;fillColor=#f5f5f5;strokeColor=#666666;fontColor=#000000;" edge="1" parent="1" source="v9bgjLNTXUfMGwr25Gy_-41" target="v9bgjLNTXUfMGwr25Gy_-55">
          <mxGeometry relative="1" as="geometry" />
        </mxCell>
        <mxCell id="v9bgjLNTXUfMGwr25Gy_-41" value="Si l&#39;état actuel diffère de l&#39;ancien on met : &lt;br&gt;mode = &quot;CHANGE&quot;&lt;br&gt;sinon :&lt;br&gt;mode = &quot;NORMAL&quot;" style="rounded=0;whiteSpace=wrap;html=1;fillColor=#f5f5f5;fontColor=#000000;strokeColor=#666666;" vertex="1" parent="1">
          <mxGeometry x="435" y="525" width="230" height="60" as="geometry" />
        </mxCell>
        <mxCell id="v9bgjLNTXUfMGwr25Gy_-44" value="Faux" style="text;html=1;strokeColor=none;fillColor=none;align=center;verticalAlign=middle;whiteSpace=wrap;rounded=0;fontColor=#000000;" vertex="1" parent="1">
          <mxGeometry x="780" y="580" width="60" height="30" as="geometry" />
        </mxCell>
        <mxCell id="v9bgjLNTXUfMGwr25Gy_-45" value="Vrai" style="text;html=1;strokeColor=none;fillColor=none;align=center;verticalAlign=middle;whiteSpace=wrap;rounded=0;fontColor=#000000;" vertex="1" parent="1">
          <mxGeometry x="831" y="606" width="60" height="30" as="geometry" />
        </mxCell>
        <mxCell id="v9bgjLNTXUfMGwr25Gy_-50" style="edgeStyle=orthogonalEdgeStyle;rounded=0;orthogonalLoop=1;jettySize=auto;html=1;exitX=0;exitY=0.5;exitDx=0;exitDy=0;fillColor=#f5f5f5;strokeColor=#666666;fontColor=#000000;" edge="1" parent="1" source="v9bgjLNTXUfMGwr25Gy_-48">
          <mxGeometry relative="1" as="geometry">
            <mxPoint x="550" y="390" as="targetPoint" />
          </mxGeometry>
        </mxCell>
        <mxCell id="v9bgjLNTXUfMGwr25Gy_-48" value="Prochaine salle" style="rounded=0;whiteSpace=wrap;html=1;fillColor=#f5f5f5;fontColor=#000000;strokeColor=#666666;" vertex="1" parent="1">
          <mxGeometry x="657.5" y="375" width="110" height="30" as="geometry" />
        </mxCell>
        <mxCell id="v9bgjLNTXUfMGwr25Gy_-58" style="edgeStyle=orthogonalEdgeStyle;rounded=0;orthogonalLoop=1;jettySize=auto;html=1;exitX=1;exitY=0.5;exitDx=0;exitDy=0;entryX=0;entryY=0.5;entryDx=0;entryDy=0;fillColor=#f5f5f5;strokeColor=#666666;fontColor=#000000;" edge="1" parent="1" source="v9bgjLNTXUfMGwr25Gy_-55" target="v9bgjLNTXUfMGwr25Gy_-39">
          <mxGeometry relative="1" as="geometry" />
        </mxCell>
        <mxCell id="v9bgjLNTXUfMGwr25Gy_-55" value="pause ( intervalle )&lt;br&gt;compteur = compteur+1" style="rounded=0;whiteSpace=wrap;html=1;fillColor=#f5f5f5;fontColor=#000000;strokeColor=#666666;" vertex="1" parent="1">
          <mxGeometry x="480" y="610" width="140" height="40" as="geometry" />
        </mxCell>
        <mxCell id="v9bgjLNTXUfMGwr25Gy_-63" value="Vrai" style="text;html=1;strokeColor=none;fillColor=none;align=center;verticalAlign=middle;whiteSpace=wrap;rounded=0;fontColor=#000000;" vertex="1" parent="1">
          <mxGeometry x="501" y="376" width="60" height="30" as="geometry" />
        </mxCell>
        <mxCell id="v9bgjLNTXUfMGwr25Gy_-64" value="Faux" style="text;html=1;strokeColor=none;fillColor=none;align=center;verticalAlign=middle;whiteSpace=wrap;rounded=0;fontColor=#000000;" vertex="1" parent="1">
          <mxGeometry x="397" y="330" width="60" height="30" as="geometry" />
        </mxCell>
      </root>
    </mxGraphModel>
  </diagram>
</mxfile>
